<svg version="1" xmlns="http://www.w3.org/2000/svg" width="1365.333" height="1365.333" viewBox="0 0 1024.000000 1024.000000"><path d="M491.9 212.4c-.2.2-4.2.6-8.9 1-8.1.6-10.5.9-19.5 2.2-2.2.3-5.3.8-7 1-8.7 1.1-28.7 6.2-41.5 10.4-26 8.6-51.2 21.3-72.2 36.3-8.8 6.3-9.8 7.1-20.3 16.2-29.4 25.6-54.1 60.8-69.9 99.5-1.5 3.6-3.1 7.4-3.6 8.5-1.8 3.9-7.1 20.8-9.9 31.8-2.6 9.9-3.8 15.2-5.6 24.7-.3 1.4-.7 3.6-.9 5-.9 4.6-2 13.1-3.1 24.5-.9 8.3-1.8 28.3-1.8 38.5 0 11.4 1.1 35.4 1.8 38.8.2 1 .6 4.9.9 8.7.4 3.9.9 7.7 1.1 8.5.3.8.7 3.4 1 5.7.2 2.3.9 6.1 1.4 8.5.6 2.4 1.2 5.7 1.6 7.5 1.7 9.9 10.3 39.4 13.9 47.7.7 1.7 2.1 5.1 3.1 7.6 6.2 15.3 18 37.4 27.7 51.6 33.5 49.3 84.7 86.2 142.7 102.9 12.9 3.7 32.6 8 41.1 9 3 .4 7.1.9 9 1.1 19.9 2.6 68 2.6 85.5-.1 1.7-.2 4.8-.6 7-.9 20-2.1 54.8-11.3 71.2-18.7 2.3-1 4.4-1.9 4.7-1.9 3.3 0 38.4-19.6 47.1-26.3 20.4-15.7 21-16.2 34-29.3 36-36.1 61-83 72.9-136.7l.6-2.7H645.2l-4.2 8.7c-12.4 25.7-34.9 48.9-60.4 62.2-7.1 3.7-22.2 9.5-27.1 10.4-1.1.2-3.8.9-6 1.5s-6.5 1.4-9.5 1.8c-3 .3-6.8.8-8.5 1-5.3.7-28.8.6-35 0-29.8-3.3-54.3-15.1-75.6-36.5-17.6-17.8-30.3-39.5-37.5-64.6-2.1-7-1.7-5.3-4.3-18.5-3-15.6-4.2-28.6-4.2-47 .1-18.8.6-25.9 3.6-45.5 1.2-7.8 6.5-26.6 9.8-35 3.6-9 12.4-25.2 17.9-33 11-15.6 28-31 43.8-39.7 9.5-5.2 26.7-11.2 36-12.4 2.5-.3 4.7-.8 5-.9 1.1-.7 14.7-1.7 22.5-1.7 30.5-.1 60.7 8.4 82 23.1 9.9 6.8 12.1 8.7 21.1 17.7 10.1 10.1 20 24.3 26.5 37.6l4.1 8.8H796l-.6-2.8c-9.4-39.7-21.9-69.7-41-98.2-25.8-38.7-61.8-70.1-102.4-89.3-14.4-6.8-15.7-7.3-27-11.2-16.7-5.8-35.7-10.4-57-13.9-1.4-.2-5.6-.7-9.5-1.1-3.8-.4-7.9-.9-9-1.2-2.3-.5-57.1-1.4-57.6-.9z"/></svg>