<svg version="1" xmlns="http://www.w3.org/2000/svg" width="1049.333" height="1049.333" viewBox="0 0 787.000000 787.000000"><path d="M0 393.5V787h787V0H0v393.5zm460-253c38.4 6 68.5 17.4 98.8 37.3 24.1 15.7 43.3 35.3 58.5 59.4 3.1 5 5.7 9.6 5.6 10.2 0 .6-9.1 7.5-20.2 15.3-11.1 7.8-34.8 24.6-52.7 37.3l-32.4 23-2.8-6c-4.4-9.9-11.1-19.1-20.1-27.7-15.9-15.2-34.6-23.6-61.5-27.4-12.7-1.8-38.7-.7-48.7 2.1-36.7 10-63.7 36.7-76.9 76-6.4 19.2-9.4 44.8-7.7 65.3 3.2 38 16.6 68.4 40 91 22 21.2 43.7 29.7 75.5 29.7 21.7 0 37.2-3.3 53.6-11.5 10.5-5.1 17.7-10.2 25.6-18 8.1-8 11.8-13.2 17-23.6 2-4.1 3.8-7.6 4-7.7.1-.2 24.8 14.3 54.9 32.2 30 18 55.2 32.9 56 33.2 2.2.9 1.9 2.1-3.1 12.1-12.7 25.1-39.5 51.6-70.5 69.6-28.2 16.3-62 27.9-98.4 33.8-18.6 2.9-53.2 3.7-71.9 1.5-44.3-5.1-81.3-20.3-119.4-48.8-11-8.3-37.2-33.8-45.4-44.3-29.7-38-47.7-78.7-55.9-126-2.7-15.4-3.7-48.5-2-64.6 8-76.1 48.2-142.1 112.1-184.2 14.9-9.7 38.2-21.7 53.1-27.1 16.9-6.2 39.4-11.3 59.9-13.5 13.4-1.5 62.6-.6 75 1.4z"/></svg>